<?xml version="1.0" standalone="no"?>
<!DOCTYPE svg PUBLIC "-//W3C//DTD SVG 20010904//EN"
 "http://www.w3.org/TR/2001/REC-SVG-20010904/DTD/svg10.dtd">
<svg version="1.0" xmlns="http://www.w3.org/2000/svg"
 width="512.000000pt" height="512.000000pt" viewBox="0 0 512.000000 512.000000"
 preserveAspectRatio="xMidYMid meet">
<metadata>
Created by potrace 1.14, written by Peter Selinger 2001-2017
</metadata>
<g transform="translate(0.000000,512.000000) scale(0.100000,-0.100000)"
fill="#000000" stroke="none">
<path d="M1392 4336 c-1071 -536 -1150 -577 -1164 -608 -14 -29 -16 -170 -15
-1168 0 -930 3 -1141 14 -1167 12 -31 89 -71 1153 -603 627 -314 1155 -572
1173 -574 26 -3 238 99 1178 570 1066 533 1147 575 1161 606 14 29 15 171 14
1178 -1 999 -3 1148 -16 1168 -10 17 -369 201 -1163 598 -631 316 -1156 574
-1167 574 -11 0 -537 -258 -1168 -574z m2163 -153 c547 -274 995 -500 995
-503 0 -3 -94 -52 -208 -109 l-209 -104 -993 497 c-547 273 -996 499 -998 501
-3 3 401 211 415 214 2 1 451 -223 998 -496z m-654 -339 l993 -497 -307 -153
-307 -154 -995 497 c-547 274 -995 500 -995 503 0 8 584 299 602 299 9 1 463
-222 1009 -495z m-866 -421 c547 -274 995 -500 995 -503 0 -3 -106 -58 -235
-123 l-235 -117 -995 497 c-547 274 -995 500 -995 503 0 4 454 236 467 239 2
1 451 -223 998 -496z m414 -929 c3 -3 5 -1904 2 -1979 -1 -17 -149 54 -1008
484 -555 277 -1010 505 -1012 507 -3 3 -5 1904 -2 1979 1 17 150 -54 1009
-484 554 -277 1009 -505 1011 -507z m2244 8 c0 -546 -2 -994 -4 -996 -8 -8
-2009 -1006 -2016 -1006 -8 0 -10 1987 -2 1994 5 5 468 236 472 236 2 0 3
-222 3 -492 -1 -271 2 -509 6 -528 13 -63 72 -93 145 -74 12 3 43 37 70 75 26
38 80 114 118 169 39 54 115 164 170 244 54 80 103 146 107 146 4 0 70 -44
145 -99 76 -54 147 -102 158 -108 52 -25 124 8 142 66 5 14 8 276 8 582 l-1
556 230 116 c127 64 235 115 240 113 6 -1 9 -398 9 -994z m-695 70 l-3 -200
-110 79 c-96 69 -115 78 -153 79 -37 0 -49 -5 -74 -32 -17 -18 -38 -44 -47
-58 -17 -27 -241 -352 -247 -359 -2 -2 -4 167 -4 377 l0 382 318 159 317 159
3 -194 c1 -106 1 -283 0 -392z"/>
</g>
</svg>
